# xmcd
#
# Track frame offsets: 
#        150
#        12058
#        25496
#        39669
#        52402
#        67076
#        81202
#        95836
#        110091
#        123779
#        137048
#        150043
#        163657
#        176852
#        189463
#        203616
#        215869
#        229730
#        240646
#        251024
#        262132
#        273345
#        284945
#        297275
#        309217
#
# Disc length: 4282 seconds
#
# Revision: 2
# Processed by: cddbd v1.5.2PL0 Copyright (c) Steve Scherf et al.
# Submitted via: ExactAudioCopy v0.95a4
#
DISCID=8010b819
DTITLE=Ernest Tubb - The Definitive Collection
DYEAR=2006
DGENRE=Country
TTITLE0=Walkin' The Floor Over You
TTITLE1=Mean Mama Blues
TTITLE2=Our Baby's Book
TTITLE3=You Nearly Lose Your Mind
TTITLE4=Soldier's Last Letter
TTITLE5=Tomorrow Never Comes
TTITLE6=It's Been So Long Darling
TTITLE7=Rainbow at Midnight
TTITLE8=Filipino Baby
TTITLE9=Drivin' Nails in My Coffin
TTITLE10=Have You Ever Been Lonely (Have You Ever Been Blue)
TTITLE11=Let's Say Goodbye Like We Said Hello
TTITLE12=Slipping Around
TTITLE13=Blue Christmas
TTITLE14=Letters Have No Arms
TTITLE15=I Love You Because
TTITLE16=Goodnight Irene
TTITLE17=You Don't Have to Be a Baby to Cry
TTITLE18=Two Glasses, Joe
TTITLE19=The Yellow Rose of Texas
TTITLE20=Half a Mind
TTITLE21=Thanks a Lot
TTITLE22=Mr. and Mrs. Used to Be
TTITLE23=Waltz Across Texas
TTITLE24=Sweet Thang
EXTD=
EXTT0=
EXTT1=
EXTT2=
EXTT3=
EXTT4=
EXTT5=
EXTT6=
EXTT7=
EXTT8=
EXTT9=
EXTT10=
EXTT11=
EXTT12=
EXTT13=
EXTT14=
EXTT15=
EXTT16=
EXTT17=
EXTT18=
EXTT19=
EXTT20=
EXTT21=
EXTT22=
EXTT23=
EXTT24=
PLAYORDER=
